<svg xmlns="http://www.w3.org/2000/svg"
 width="176" height="57"
 >
<g transform="translate(0,57) scale(0.1,-0.1)"
fill="#000000" stroke="none">
<path d="M50 490 c-40 -43 -55 -92 -38 -126 21 -44 37 -41 31 6 -6 41 20 120
39 120 5 0 8 -72 6 -170 -2 -94 0 -170 4 -170 4 0 14 10 22 22 13 18 16 54 16
185 l0 163 -26 0 c-16 0 -37 -12 -54 -30z"/>
<path d="M568 488 c-2 -28 -7 -34 -30 -36 -36 -4 -38 -32 -3 -32 24 0 25 -3
25 -60 0 -38 -6 -73 -17 -93 l-16 -32 -8 30 c-5 17 -22 41 -39 53 -25 19 -28
26 -20 42 16 29 12 50 -9 50 -27 0 -44 -26 -38 -58 3 -18 -4 -41 -22 -71 -42
-70 -51 -65 -51 28 0 68 -3 82 -18 90 -26 14 -59 -11 -82 -63 l-19 -41 0 53
c-1 45 -4 52 -21 52 -20 0 -21 -5 -18 -102 2 -84 6 -103 19 -106 11 -2 20 13
32 55 9 32 27 74 39 93 l23 35 5 -90 c5 -83 7 -90 27 -93 16 -2 30 8 52 38 17
23 33 51 36 61 4 10 10 19 15 19 18 0 50 -44 50 -68 0 -21 -4 -23 -37 -20 -29
2 -38 -1 -38 -12 0 -10 12 -16 34 -18 52 -5 78 5 98 38 9 17 20 30 23 30 3 0
10 -15 15 -32 13 -45 56 -51 81 -13 l17 27 14 -26 c17 -32 65 -36 90 -6 17 19
17 19 30 0 17 -24 59 -26 71 -4 8 14 10 14 21 0 17 -21 60 -20 83 1 15 13 18
13 18 2 0 -8 -20 -35 -45 -59 -35 -35 -45 -51 -45 -77 0 -27 5 -35 25 -43 31
-12 70 1 84 28 6 11 13 50 17 87 5 51 15 81 40 123 19 30 36 64 40 74 3 10 14
18 24 18 16 0 18 -6 13 -60 -4 -45 -2 -65 11 -85 18 -27 54 -33 74 -13 9 9 15
9 24 0 19 -19 59 -14 84 9 l22 21 7 -21 c7 -24 43 -28 64 -8 11 9 14 9 18 0 3
-7 13 -13 23 -13 14 0 19 11 24 48 9 62 25 112 37 112 5 0 9 -26 9 -58 0 -57
20 -106 36 -89 5 5 14 36 21 69 18 87 33 97 33 22 0 -68 19 -104 54 -104 17 0
27 9 36 30 7 17 10 33 7 37 -4 3 -11 -6 -17 -21 -24 -63 -54 13 -43 106 5 44
3 48 -18 57 -33 12 -36 8 -56 -57 l-18 -57 -3 52 c-2 39 -8 55 -21 63 -22 11
-36 -1 -46 -43 -11 -43 -25 -42 -25 1 0 24 -5 42 -14 45 -10 4 -15 -13 -19
-74 -12 -148 -49 -163 -57 -23 -5 87 -6 89 -30 90 -14 0 -33 4 -44 9 -42 19
-86 -49 -86 -133 0 -39 -4 -54 -16 -59 -26 -10 -35 17 -32 97 l3 75 -32 -3
c-24 -1 -33 2 -33 14 0 10 -7 14 -22 12 -20 -3 -23 -9 -24 -48 0 -47 -27 -110
-45 -110 -7 0 -10 25 -7 73 3 71 3 72 -22 72 -14 0 -31 4 -38 8 -7 5 -24 6
-38 3 -32 -8 -54 -59 -54 -124 0 -50 -18 -80 -40 -67 -6 3 -10 44 -10 96 l0
89 -27 0 c-16 0 -41 1 -57 2 -38 4 -64 -31 -75 -100 -9 -55 -31 -89 -50 -78
-7 5 -11 44 -11 101 l0 94 33 3 c41 4 42 22 0 26 -28 3 -32 7 -35 35 -4 46
-36 50 -40 5z m212 -127 c23 -43 -2 -151 -35 -151 -33 0 -45 77 -21 135 17 39
40 45 56 16z m212 -16 c14 -55 -10 -135 -42 -135 -31 0 -39 120 -10 155 19 23
42 14 52 -20z m362 -6 c11 -46 -11 -122 -36 -127 -24 -5 -41 42 -35 95 8 78
54 98 71 32z m-363 -272 c-12 -30 -45 -37 -55 -11 -7 18 7 49 38 82 l21 24 3
-34 c2 -19 -2 -46 -7 -61z"/>
</g>
</svg>
